<?xml version="1.0" standalone="no"?>
<!DOCTYPE svg PUBLIC "-//W3C//DTD SVG 20010904//EN"
 "http://www.w3.org/TR/2001/REC-SVG-20010904/DTD/svg10.dtd">
<svg version="1.0" xmlns="http://www.w3.org/2000/svg"
 width="1072.000000pt" height="1072.000000pt" viewBox="0 0 1072.000000 1072.000000"
 preserveAspectRatio="xMidYMid meet">
<metadata>
Created by potrace 1.11, written by Peter Selinger 2001-2013
</metadata>
<g transform="translate(0.000000,1072.000000) scale(0.100000,-0.100000)"
fill="#000000" stroke="none">
<path d="M1821 9603 c-18 -87 -40 -183 -47 -213 -14 -58 -26 -126 -27 -147 0
-7 -4 -13 -8 -13 -4 0 -7 -10 -6 -22 0 -13 -3 -35 -6 -50 -4 -16 -9 -38 -12
-50 -3 -13 -7 -33 -10 -45 -3 -13 -7 -33 -10 -45 -2 -13 -8 -36 -11 -53 -4
-16 -8 -39 -10 -50 -1 -11 -11 -58 -22 -105 -11 -47 -23 -98 -26 -115 -7 -40
-13 -73 -37 -183 -11 -51 -21 -102 -22 -113 -1 -10 -4 -19 -8 -19 -4 0 -6 -8
-5 -17 2 -10 -3 -40 -10 -68 -7 -27 -16 -66 -19 -85 -3 -19 -10 -51 -15 -70
-5 -19 -12 -51 -15 -70 -3 -19 -8 -43 -11 -52 -3 -9 -7 -27 -9 -40 -3 -13 -8
-36 -11 -53 -4 -16 -9 -41 -11 -55 -8 -49 -11 -65 -13 -65 -1 0 -3 -11 -6 -25
-2 -14 -16 -77 -30 -140 -14 -64 -27 -125 -29 -135 -2 -11 -4 -20 -5 -20 -1 0
-3 -9 -4 -20 -3 -21 -25 -129 -41 -197 -3 -13 -8 -39 -11 -58 -3 -19 -8 -38
-10 -41 -2 -4 -6 -24 -9 -45 -4 -22 -8 -47 -11 -56 -5 -18 -12 -48 -19 -93 -3
-16 -8 -37 -10 -45 -2 -8 -6 -26 -9 -40 -3 -14 -12 -56 -21 -95 -9 -38 -18
-79 -20 -90 -21 -112 -23 -120 -25 -120 -1 0 -3 -9 -5 -20 -1 -11 -5 -32 -9
-47 -3 -16 -8 -40 -11 -55 -5 -27 -14 -70 -22 -103 -5 -19 -10 -46 -19 -90 -7
-40 -8 -46 -17 -80 -4 -14 -9 -37 -12 -52 -3 -16 -7 -40 -10 -55 -3 -16 -8
-39 -12 -53 -8 -33 -6 -24 -43 -200 -37 -179 -35 -170 -49 -232 -6 -27 -11
-51 -10 -55 1 -5 0 -11 -1 -15 -1 -5 -4 -12 -5 -18 -1 -5 -3 -11 -4 -12 -2 -2
-4 -14 -7 -28 -2 -14 -12 -59 -21 -100 -9 -41 -18 -79 -18 -85 -1 -5 -3 -12
-4 -15 -2 -3 -4 -14 -6 -25 -1 -11 -5 -33 -9 -50 -3 -16 -8 -41 -11 -55 -3
-14 -12 -56 -20 -95 -9 -38 -18 -81 -21 -95 -4 -22 -12 -59 -20 -95 -1 -5 -5
-26 -8 -45 -4 -19 -9 -43 -12 -52 -5 -16 -9 -35 -19 -88 -3 -14 -7 -34 -9 -45
-9 -41 -47 -221 -52 -240 -2 -11 -6 -31 -9 -45 -3 -14 -7 -34 -9 -45 -3 -11
-14 -65 -26 -120 -12 -55 -23 -109 -26 -120 -2 -11 -6 -31 -9 -45 -3 -14 -7
-36 -10 -50 -3 -14 -8 -41 -12 -60 -9 -46 -10 -49 -13 -55 -1 -3 -4 -14 -5
-25 -1 -11 -3 -21 -5 -22 -3 -5 -11 -44 -25 -130 -3 -17 -8 -34 -10 -38 -2 -4
-7 -22 -10 -41 -4 -28 -10 -56 -20 -99 -1 -3 -5 -25 -10 -50 -5 -25 -9 -47
-10 -50 -1 -3 -7 -32 -15 -65 -8 -33 -14 -62 -15 -65 -1 -3 -5 -27 -10 -55
-10 -57 -12 -63 -15 -70 -3 -6 -4 -9 -13 -55 -4 -19 -10 -46 -13 -60 -3 -14
-7 -34 -8 -45 -2 -11 -4 -20 -5 -20 -1 0 -4 -13 -6 -30 -4 -25 -20 -104 -40
-190 -7 -29 -18 -87 -20 -105 -1 -8 -5 -22 -8 -30 -4 -8 -8 -28 -11 -45 -2
-16 -5 -30 -6 -30 -1 0 -3 -9 -4 -20 -3 -19 -20 -101 -41 -200 -3 -11 -7 -29
-9 -40 -2 -11 -9 -41 -15 -67 -6 -27 -10 -51 -9 -55 0 -5 -1 -15 -5 -23 -5
-15 -38 -161 -42 -190 -2 -8 -5 -26 -8 -40 -13 -56 -17 -76 -23 -105 -3 -16
-10 -50 -15 -75 -6 -25 -24 -108 -40 -185 -16 -77 -38 -183 -50 -235 -53 -243
-53 -246 -37 -252 21 -6 8766 -3 8773 4 4 3 9 21 12 40 2 18 13 70 24 115 10
44 21 96 24 115 3 18 11 51 16 73 5 22 12 54 15 70 3 17 12 57 20 90 8 33 17
74 19 90 2 17 6 39 9 50 21 92 29 124 33 150 7 42 11 60 13 60 1 0 3 9 4 20 3
22 17 91 23 115 3 8 6 24 8 35 2 11 4 20 5 20 2 0 4 9 5 20 5 43 15 98 19 104
2 3 7 24 10 46 4 22 13 64 21 95 7 30 16 69 19 85 3 17 7 41 10 55 3 14 8 34
10 45 31 141 49 228 60 288 3 12 11 50 19 85 9 34 16 65 16 67 1 3 1 6 2 8 0
1 2 9 4 17 1 8 17 85 35 170 18 85 34 164 36 175 2 17 12 63 39 180 3 11 10
45 16 75 16 86 19 98 35 169 9 36 18 76 20 89 6 34 12 63 23 117 18 87 20 96
25 113 3 9 7 33 10 52 4 19 11 53 16 75 6 22 12 49 14 60 2 11 7 36 10 55 4
19 9 44 11 55 2 11 4 20 5 20 1 0 3 8 5 18 2 11 13 65 26 120 12 56 23 111 25
122 2 11 6 31 9 45 7 30 25 115 31 150 2 14 7 31 10 39 2 8 7 30 10 50 3 20 7
43 10 51 3 8 8 29 11 45 2 17 11 62 20 100 8 39 16 78 18 88 2 10 6 26 9 35 3
9 8 31 11 47 6 38 13 73 20 105 4 14 8 36 11 50 2 14 7 36 11 50 3 14 7 32 8
40 1 8 5 29 9 45 3 17 9 46 12 65 3 19 10 42 14 50 4 8 8 17 8 20 -1 3 3 28 8
55 4 28 9 55 9 60 1 6 5 17 8 25 3 8 8 31 11 50 3 19 8 45 11 58 8 37 15 65
22 102 9 47 10 50 13 53 2 2 7 28 14 72 2 17 19 93 36 170 17 77 33 151 35
165 2 14 16 79 30 145 15 66 29 131 31 145 3 14 7 32 9 40 2 8 7 29 10 45 2
17 7 41 10 55 3 14 8 34 10 45 3 11 7 30 10 43 3 12 7 30 9 41 2 10 7 36 10
57 4 22 11 57 17 79 6 22 13 51 16 65 4 24 54 261 94 450 11 52 22 104 25 115
2 11 10 52 18 90 9 39 18 81 20 95 8 39 15 70 20 88 3 9 8 33 11 52 4 29 12
68 21 103 1 4 2 8 4 10 1 1 3 11 5 22 5 38 16 90 26 128 5 20 7 42 4 47 -3 6
-2 10 2 10 5 0 9 8 10 18 1 9 11 60 22 112 11 52 23 106 25 120 3 14 5 26 7
28 1 1 3 11 4 22 1 11 3 21 5 23 2 3 6 21 15 67 3 19 10 53 15 74 5 22 7 44 4
48 -3 4 0 8 6 8 7 0 10 6 7 14 -3 8 -3 17 1 21 3 3 7 16 8 28 1 12 9 54 18 92
19 80 24 103 41 193 3 15 17 78 31 140 14 63 26 122 27 133 1 10 4 19 7 19 3
0 6 18 7 40 l3 40 -4393 0 -4393 0 -33 -157z"/>
</g>
</svg>
