<?xml version="1.0" encoding="UTF-8"?>
<svg width="348px" height="635px" viewBox="0 0 348 635" version="1.1" xmlns="http://www.w3.org/2000/svg" xmlns:xlink="http://www.w3.org/1999/xlink">
    <!-- Generator: Sketch 51.3 (57544) - http://www.bohemiancoding.com/sketch -->
    <title>BG Stars</title>
    <desc>Created with Sketch.</desc>
    <defs></defs>
    <g id="Page-1" stroke="none" stroke-width="1" fill="none" fill-rule="evenodd">
        <g id="Home-Page" transform="translate(-27.000000, -14.000000)" fill="#FFFFFF">
            <g id="Background" transform="translate(-75.000000, 0.000000)">
                <g id="BG-Stars" transform="translate(100.000000, 11.000000)">
                    <polygon id="Star-2" transform="translate(310.490381, 72.490381) rotate(30.000000) translate(-310.490381, -72.490381) " points="310.490381 79.9903811 301.673602 84.625636 303.357457 74.8080085 296.224533 67.8551261 306.081992 66.4227536 310.490381 57.4903811 314.89877 66.4227536 324.756229 67.8551261 317.623305 74.8080085 319.30716 84.625636"></polygon>
                    <polygon id="Star-2-Copy-2" transform="translate(56.862426, 54.137574) rotate(107.000000) translate(-56.862426, -54.137574) " points="56.8624264 58.8875736 51.2784665 61.8232351 52.3449079 55.6054043 47.8273895 51.2019122 54.0704464 50.2947429 56.8624264 44.6375736 59.6544063 50.2947429 65.8974633 51.2019122 61.3799448 55.6054043 62.4463863 61.8232351"></polygon>
                    <polygon id="Star-2-Copy" transform="translate(31.000000, 338.000000) rotate(-21.000000) translate(-31.000000, -338.000000) " points="31 345.5 22.1832212 350.135255 23.8670761 340.317627 16.7341523 333.364745 26.5916106 331.932373 31 323 35.4083894 331.932373 45.2658477 333.364745 38.1329239 340.317627 39.8167788 350.135255"></polygon>
                    <polygon id="Triangle-2" transform="translate(313.339890, 340.098012) rotate(47.000000) translate(-313.339890, -340.098012) " points="313.33989 285.436552 316.678781 394.759472 310.000999 394.759472"></polygon>
                    <polygon id="Star-3" transform="translate(262.000000, 389.000000) rotate(16.000000) translate(-262.000000, -389.000000) " points="262 394.5 255.534362 397.899187 256.769189 390.699593 251.538378 385.600813 258.767181 384.550407 262 378 265.232819 384.550407 272.461622 385.600813 267.230811 390.699593 268.465638 397.899187"></polygon>
                    <polygon id="Triangle-3" transform="translate(25.034281, 23.726365) rotate(-47.000000) translate(-25.034281, -23.726365) " points="25.0342813 -6.77363521 29.0342813 54.2263648 21.0342813 54.2263648"></polygon>
                    <polygon id="Triangle-4" transform="translate(94.069219, 597.062178) rotate(-60.000000) translate(-94.069219, -597.062178) " points="94.0692194 549.062178 98.0692194 645.062178 90.0692194 645.062178"></polygon>
                    <polygon id="Star-4" points="150 634.5 144.709933 637.281153 145.720246 631.390576 141.440491 627.218847 147.354966 626.359424 150 621 152.645034 626.359424 158.559509 627.218847 154.279754 631.390576 155.290067 637.281153"></polygon>
                </g>
            </g>
        </g>
    </g>
</svg>